<?xml version="1.0" standalone="no"?>
<!DOCTYPE svg PUBLIC "-//W3C//DTD SVG 20010904//EN"
 "http://www.w3.org/TR/2001/REC-SVG-20010904/DTD/svg10.dtd">
<svg version="1.0" xmlns="http://www.w3.org/2000/svg"
 width="256.000000pt" height="256.000000pt" viewBox="0 0 256.000000 256.000000"
 preserveAspectRatio="xMidYMid meet">
<metadata>
Created by potrace 1.10, written by Peter Selinger 2001-2011
</metadata>
<g transform="translate(0.000000,256.000000) scale(0.100000,-0.100000)"
fill="#000000" stroke="none">
<path d="M705 1818 c-7 -18 -50 -118 -94 -221 -45 -104 -81 -193 -81 -198 0
-4 47 -10 104 -11 l104 -3 -45 -107 -46 -107 -110 -3 -110 -3 -93 -218 c-52
-121 -94 -223 -94 -228 0 -5 227 -8 566 -7 l566 3 65 156 66 157 181 5 c260 7
363 42 471 159 62 67 136 209 161 307 42 170 -42 298 -221 336 -58 12 -186 15
-723 15 l-653 0 -14 -32z m1399 -108 c49 -18 92 -60 99 -99 16 -78 -72 -282
-154 -355 -100 -90 -185 -106 -570 -106 l-276 0 -21 -47 c-11 -26 -18 -51 -16
-55 3 -5 50 -8 105 -8 54 0 99 -3 99 -7 0 -5 -19 -52 -42 -105 l-41 -98 -435
0 c-343 0 -433 3 -429 13 2 6 22 53 43 104 l39 92 110 3 110 3 97 225 c54 124
98 228 98 233 0 4 -47 7 -105 7 -58 0 -105 2 -105 4 0 2 16 42 36 88 20 45 40
93 45 106 l9 23 632 -4 c513 -2 640 -6 672 -17z"/>
<path d="M785 1633 c-15 -37 -29 -74 -32 -80 -4 -10 20 -13 101 -13 58 0 106
-2 106 -4 0 -2 -49 -118 -108 -257 l-108 -254 -111 -3 -110 -3 -32 -74 c-17
-41 -31 -77 -31 -80 0 -3 183 -5 408 -5 l407 0 30 72 c17 39 32 75 33 80 2 4
-44 8 -103 8 -123 0 -119 -6 -71 103 l25 56 338 3 c299 3 344 6 388 22 113 42
172 105 231 250 51 124 44 184 -29 224 -29 16 -85 17 -668 20 l-637 3 -27 -68z
m1000 -105 c54 -24 39 -101 -31 -155 l-37 -28 -230 -3 c-207 -3 -229 -2 -224
13 4 8 23 54 43 100 l36 85 209 0 c138 0 217 -4 234 -12z"/>
<path d="M1332 1458 c-11 -29 -23 -61 -27 -70 -7 -17 7 -18 196 -18 187 0 207
2 237 20 18 11 40 36 48 56 26 62 20 64 -221 64 l-212 0 -21 -52z"/>
</g>
</svg>
